<svg width="9" height="18" fill="none" xmlns="http://www.w3.org/2000/svg"><path d="M8.38 5.067c.083 0 .15.033.199.099.066.05.098.115.098.198v1.953a.307.307 0 0 1-.098.223.267.267 0 0 1-.198.074H5.933c-.083 0-.124.04-.124.123v9.694a.307.307 0 0 1-.099.222.267.267 0 0 1-.198.074H3.237a.361.361 0 0 1-.222-.074.362.362 0 0 1-.074-.223V7.737c0-.082-.041-.123-.124-.123H1.284a.362.362 0 0 1-.223-.074.362.362 0 0 1-.074-.223V5.364c0-.083.025-.149.074-.198a.307.307 0 0 1 .223-.1h1.533c.083 0 .124-.04.124-.123v-.445c0-1.071.14-1.896.42-2.473.28-.593.742-1.013 1.385-1.26.643-.248 1.55-.363 2.72-.347h.865c.083 0 .149.033.198.099.066.05.099.115.099.198v1.73a.307.307 0 0 1-.099.223.267.267 0 0 1-.198.074h-.643c-.708 0-1.203.14-1.483.42-.264.281-.396.792-.396 1.534v.247c0 .083.041.124.124.124H8.38z" fill="#42454A"/></svg>