<svg width="18" height="17" fill="none" xmlns="http://www.w3.org/2000/svg"><path d="M14.788.145H3.135C1.82.145.817 1.147.817 2.463v11.653c0 1.315 1.003 2.318 2.318 2.318h11.653c1.316 0 2.318-1.003 2.318-2.318V2.463c0-1.316-1.002-2.318-2.318-2.318zm-5.826 13.03c2.694 0 4.886-2.13 4.886-4.698 0-.171-.01-.353-.028-.532-.042-.392.247-.783.641-.783.32 0 .578.258.578.577v6.063c0 .314-.25.627-.627.627h-10.9a.628.628 0 0 1-.627-.627V7.718a.62.62 0 0 1 .62-.62c.411 0 .707.396.661.806a4.63 4.63 0 0 0-.028.51c-.063 2.632 2.13 4.762 4.824 4.762zm0-1.879c-1.754 0-3.133-1.378-3.133-3.07 0-1.691 1.379-3.07 3.133-3.07s3.132 1.379 3.132 3.07c0 1.755-1.378 3.07-3.132 3.07zm6.014-6.703c0 .376-.313.689-.689.689h-1.754a.695.695 0 0 1-.69-.69v-1.69c0-.377.314-.69.69-.69h1.754c.376 0 .69.313.69.69v1.69z" fill="#42454A"/></svg>