<svg width="70" height="47" fill="none" xmlns="http://www.w3.org/2000/svg"><g fill="#42454A"><path d="M19.822 34.067c-3.578 0-6.48-2.922-6.48-6.525 0-3.604 2.902-6.526 6.48-6.526 2.946 0 5.433 1.98 6.22 4.69l11.205-6.583c-3.117-6.531-9.748-11.04-17.425-11.04C9.151 8.083.5 16.796.5 27.541c0 10.747 8.65 19.46 19.322 19.46 10.672 0 19.323-8.713 19.323-19.46H26.302c0 3.604-2.901 6.526-6.48 6.526z"/><path d="M54.322 12.257c-8.382 0-15.178 6.844-15.178 15.284h11.149c0-2.241 1.803-4.058 4.03-4.058 2.224 0 4.029 1.817 4.029 4.058 0 2.242-1.805 4.058-4.03 4.058-1.924 0-3.533-1.358-3.934-3.175l-9.753 5.73c2.449 5.13 7.657 8.672 13.687 8.672 8.383 0 15.178-6.843 15.178-15.285 0-8.44-6.795-15.284-15.178-15.284zM38.231 10.229c3.762 0 7.5-.53 11.136-1.5a19.216 19.216 0 0 1 4.955-.646c.93 0 1.845.066 2.74.194a10.236 10.236 0 0 0-3.376-5.826A10.073 10.073 0 0 0 47.09 0H21.217c3.264 6.09 9.66 10.229 17.014 10.229z"/></g></svg>