<svg width="80" height="80" fill="none" xmlns="http://www.w3.org/2000/svg"><path d="M39.167 43.333v-6.666l4.167 3.11-4.167 3.556z" fill="#38413B" stroke="#38413B" stroke-width=".833"/><path d="M39.772 10.872c.544 0 .94-.092 1.188-.276.248-.184.372-.444.372-.78A.97.97 0 0 0 41.2 9.3c-.08-.144-.2-.272-.36-.384a2.49 2.49 0 0 0-.564-.324 7.358 7.358 0 0 0-.768-.3 13.121 13.121 0 0 1-.84-.336 3.108 3.108 0 0 1-.708-.468 2.26 2.26 0 0 1-.492-.66c-.12-.256-.18-.564-.18-.924 0-.752.26-1.34.78-1.764.52-.432 1.228-.648 2.124-.648.52 0 .98.06 1.38.18.408.112.728.236.96.372l-.468 1.224a3.568 3.568 0 0 0-.9-.348c-.32-.08-.652-.12-.996-.12-.408 0-.728.084-.96.252-.224.168-.336.404-.336.708 0 .184.036.344.108.48.08.128.188.244.324.348.144.104.308.2.492.288.192.088.4.172.624.252.392.144.74.292 1.044.444.312.144.572.32.78.528.216.2.38.44.492.72.112.272.168.604.168.996 0 .752-.268 1.336-.804 1.752-.528.408-1.304.612-2.328.612-.344 0-.66-.024-.948-.072a5.697 5.697 0 0 1-.756-.156 6.53 6.53 0 0 1-.564-.192 4.242 4.242 0 0 1-.384-.192l.444-1.236c.216.12.508.24.876.36s.812.18 1.332.18zM48.77 12.243l3.182-7.683 4.934 2.044-.491 1.186-3.537-1.465-.785 1.896 3.148 1.304-.482 1.164-3.148-1.304-.933 2.25 3.803 1.576-.491 1.186-5.2-2.154zM58.725 17.712l5.88-5.88 3.776 3.776-.908.908-2.707-2.707-1.45 1.45 2.41 2.41-.892.892-2.41-2.41-1.722 1.722 2.91 2.91-.907.909-3.98-3.98zM76.316 41.808v1.512H68v-1.512h3.684v-3.612H68v-1.512h8.316v1.512h-3.324v3.612h3.324zM71.505 50.602a4.36 4.36 0 0 0-1.217-.322 2.859 2.859 0 0 0-1.06.08c-.319.102-.603.266-.852.491-.25.226-.448.516-.595.871a2.353 2.353 0 0 0-.19 1.025c.016.336.103.65.26.94.161.3.39.572.687.817.305.247.668.458 1.09.633.42.174.823.28 1.205.317.39.04.745.01 1.064-.092.324-.09.61-.25.86-.475.25-.226.446-.512.59-.86.147-.354.212-.7.195-1.036a2.23 2.23 0 0 0-.267-.955 2.86 2.86 0 0 0-.692-.806 4.24 4.24 0 0 0-1.078-.628zM69.021 56.6c-.658-.273-1.197-.613-1.617-1.02-.423-.4-.734-.841-.933-1.322a3.546 3.546 0 0 1-.267-1.488c.017-.52.13-1.037.342-1.547.211-.51.497-.958.857-1.346.356-.38.771-.672 1.245-.874a4.083 4.083 0 0 1 1.594-.275c.586.009 1.207.15 1.865.422.658.272 1.193.61 1.605 1.016.42.407.73.852.93 1.332.195.489.285.993.268 1.515a4.351 4.351 0 0 1-.337 1.535c-.208.503-.491.944-.848 1.325-.356.38-.774.666-1.251.858-.481.2-1.014.295-1.6.286-.577-.006-1.195-.145-1.853-.417zM65.093 66.356a173.1 173.1 0 0 0-1.248-.67c-.43-.226-.865-.453-1.306-.679-.442-.215-.877-.43-1.307-.645l-1.222-.577c.22.39.47.803.747 1.239a89.635 89.635 0 0 0 1.841 2.775c.322.48.645.95.967 1.408l-1.103 1.103a76.29 76.29 0 0 1-2.41-3.733 51.727 51.727 0 0 1-1.994-3.623l1.019-1.019a77.877 77.877 0 0 1 5.023 2.461 75.281 75.281 0 0 1-1.315-2.588c-.402-.831-.784-1.643-1.146-2.435l1.018-1.018c1.2.588 2.41 1.25 3.632 1.985a84.197 84.197 0 0 1 3.725 2.418l-1.145 1.146c-.453-.317-.917-.64-1.392-.967-.48-.323-.956-.64-1.425-.95-.47-.3-.928-.589-1.375-.866a36.024 36.024 0 0 0-1.256-.747c.181.396.376.806.586 1.23.209.436.424.872.644 1.307.227.441.456.874.688 1.298.226.43.45.84.67 1.23l-.916.917zM40.756 76.316h-1.512V68h1.512v8.316zM22.655 73.206l.5-1.208 2.362.978 2.682-6.475 1.408.584-2.682 6.474 2.361.978-.5 1.209-6.131-2.54zM6.048 53.097c.35-.284.716-.583 1.096-.896.374-.31.75-.627 1.128-.948.367-.325.732-.645 1.096-.96l1-.908c-.445.054-.922.126-1.43.216a89.758 89.758 0 0 0-3.268.64c-.568.113-1.125.231-1.672.353l-.597-1.44a76.298 76.298 0 0 1 4.372-.798c1.41-.212 2.78-.364 4.11-.456l.551 1.33a77.908 77.908 0 0 1-4.195 3.7 74.995 74.995 0 0 1 2.894-.225c.922-.053 1.818-.095 2.688-.127l.551 1.33a48.334 48.334 0 0 1-3.224 2.596 84.169 84.169 0 0 1-3.66 2.516l-.62-1.496c.466-.297.942-.602 1.427-.916.482-.32.956-.639 1.423-.953.457-.32.899-.632 1.326-.939.427-.307.817-.598 1.17-.874-.435.015-.888.039-1.36.07-.483.026-.968.058-1.454.095-.495.04-.982.087-1.463.139-.484.044-.948.094-1.393.148l-.496-1.197zM7.836 42.461a4.36 4.36 0 0 0 1.248-.168 2.86 2.86 0 0 0 .948-.48c.256-.216.456-.476.6-.78.144-.304.216-.648.216-1.032 0-.376-.072-.716-.216-1.02a2.176 2.176 0 0 0-.6-.768 2.736 2.736 0 0 0-.948-.492 4.36 4.36 0 0 0-1.248-.168c-.456 0-.868.056-1.236.168a2.6 2.6 0 0 0-.948.492 2.12 2.12 0 0 0-.612.768 2.353 2.353 0 0 0-.216 1.02c0 .384.072.728.216 1.032.144.304.348.564.612.78.264.208.58.368.948.48.368.112.78.168 1.236.168zm0-6.492c.712 0 1.34.108 1.884.324.544.208 1 .496 1.368.864.36.36.632.784.816 1.272.184.488.276 1.008.276 1.56s-.092 1.076-.276 1.572a3.664 3.664 0 0 1-.816 1.284c-.368.36-.824.648-1.368.864-.544.216-1.172.324-1.884.324s-1.336-.108-1.872-.324c-.544-.216-1-.508-1.368-.876a3.701 3.701 0 0 1-.828-1.296 4.35 4.35 0 0 1-.276-1.548c0-.544.092-1.06.276-1.548a3.47 3.47 0 0 1 .828-1.272c.368-.368.824-.66 1.368-.876.536-.216 1.16-.324 1.872-.324zM5.314 26.01c.459-1.108 1.013-1.87 1.661-2.285.652-.423 1.395-.462 2.23-.116 1.042.432 1.535 1.238 1.48 2.418.227-.07.5-.143.818-.22a17.91 17.91 0 0 1 1.023-.212c.357-.068.723-.125 1.096-.17.366-.047.72-.077 1.064-.091l-.647 1.563c-.325.03-.653.072-.987.124-.34.05-.672.107-.993.173-.327.055-.634.119-.923.19a15.91 15.91 0 0 0-.798.201 4.086 4.086 0 0 1-.1.27l-.087.212-.28.676 2.905 1.203-.579 1.397-7.572-3.137c.067-.37.17-.752.306-1.146.13-.396.257-.746.383-1.05zm1.25.402c-.123.295-.225.573-.307.834l2.483 1.028.253-.61c.14-.34.246-.646.317-.92.07-.274.092-.516.066-.726a1.042 1.042 0 0 0-.222-.56c-.126-.156-.315-.286-.566-.39a1.338 1.338 0 0 0-.654-.115 1.06 1.06 0 0 0-.549.227 1.805 1.805 0 0 0-.443.505c-.139.211-.265.453-.378.727zM21.089 17.9c-.374-.08-.78-.148-1.222-.204a14.886 14.886 0 0 0-1.332-.11c-.442-.023-.88-.026-1.316-.01-.435.018-.84.06-1.213.128l2.639 2.639-1.07 1.07-5.88-5.881 1.07-1.07 2.426 2.428a85.6 85.6 0 0 0-.008-1.18 88.142 88.142 0 0 0-.102-2.46l-.06-1.044 1.282-1.282a92.986 92.986 0 0 1 .136 2.614c.011.452.02.908.025 1.366.012.453.014.89.009 1.315.418-.056.87-.085 1.357-.085.487-.011.988.003 1.502.043.51.034 1.021.093 1.536.178.515.073 1.01.167 1.485.28l-1.264 1.264zM28.26 12.253c.503-.208.833-.445.992-.71.159-.264.174-.552.045-.862a.97.97 0 0 0-.32-.427 1.163 1.163 0 0 0-.479-.217 2.488 2.488 0 0 0-.645-.083 7.36 7.36 0 0 0-.824.016c-.306.015-.607.018-.905.012a3.108 3.108 0 0 1-.833-.162 2.26 2.26 0 0 1-.707-.421c-.209-.191-.382-.453-.52-.785-.288-.695-.273-1.338.046-1.928.315-.598.886-1.069 1.714-1.412a4.81 4.81 0 0 1 1.344-.362c.42-.052.763-.06 1.03-.023l.035 1.31a3.568 3.568 0 0 0-.965.022 4.093 4.093 0 0 0-.966.27c-.377.157-.64.357-.79.6-.143.242-.156.503-.04.784.07.17.165.304.284.402.123.087.267.153.432.197.173.041.361.067.565.078.211.008.436.006.673-.006a10.24 10.24 0 0 1 1.135.01c.343.014.65.078.922.19.276.102.52.261.73.477.208.208.387.494.537.856.287.695.263 1.337-.073 1.926-.331.58-.97 1.065-1.916 1.456-.318.132-.62.23-.904.297-.274.07-.526.118-.758.145a6.542 6.542 0 0 1-.594.038 4.244 4.244 0 0 1-.429-.03l-.062-1.312c.245.028.56.027.947-.002.386-.03.819-.145 1.3-.344z" fill="#718176"/><circle cx="52.5" cy="70.833" r="1.667" fill="#626C65"/><circle cx="70" cy="25.833" r="1.667" fill="#626C65"/><circle cx="16.667" cy="64.167" r="1.667" fill="#626C65"/></svg>