<svg width="18" height="14" fill="none" xmlns="http://www.w3.org/2000/svg"><path d="M17.27 2.158a7.36 7.36 0 0 1-1.912.484c.665-.403 1.247-1.049 1.496-1.775-.665.403-1.33.646-2.161.807-.582-.646-1.496-1.049-2.41-1.049-1.828 0-3.324 1.452-3.324 3.227 0 .242 0 .484.083.727-2.743-.162-5.236-1.453-6.898-3.39-.25.485-.416 1.05-.416 1.614 0 1.13.582 2.098 1.496 2.663-.581 0-1.08-.161-1.496-.403 0 1.533 1.164 2.904 2.66 3.146-.25.081-.582.081-.914.081-.25 0-.416 0-.665-.08.415 1.29 1.662 2.258 3.158 2.258-1.164.888-2.576 1.372-4.155 1.372-.25 0-.5 0-.832-.08 1.496.887 3.242 1.452 5.153 1.452 6.15 0 9.474-4.922 9.474-9.198V3.61c.665-.242 1.247-.807 1.662-1.452z" fill="#42454A"/></svg>